<?xml version="1.0" encoding="utf-8"?>
<!-- Generator: Adobe Illustrator 16.0.0, SVG Export Plug-In . SVG Version: 6.00 Build 0)  -->
<!DOCTYPE svg PUBLIC "-//W3C//DTD SVG 1.1//EN" "http://www.w3.org/Graphics/SVG/1.1/DTD/svg11.dtd">
<svg version="1.1" id="Layer_1" xmlns="http://www.w3.org/2000/svg" xmlns:xlink="http://www.w3.org/1999/xlink" x="0px" y="0px"
	 width="512px" height="561.354px" viewBox="0 21.205 512 561.354" enable-background="new 0 21.205 512 561.354"
	 xml:space="preserve">
<g id="Page-1">
	<g id="_x30_38---Spilling-Coffee" transform="translate(0 -2)">
		
			<ellipse id="Oval" transform="matrix(-0.7071 -0.7071 0.7071 -0.7071 598.1993 369.5855)" fill="#382414" cx="375.643" cy="60.902" rx="45.707" ry="27.425"/>
		<path id="Shape" fill="#382414" d="M162.185,152.692c22.173,40.943,49.819,78.675,82.177,112.156
			c-0.412-6.4-0.458-12.801-0.448-19.255c0-20.114,0.055-40.869-12.343-57.463C215.044,166.369,189.503,153.324,162.185,152.692
			L162.185,152.692z"/>
		<path id="Shape_1_" fill="#382414" d="M33.61,137.882c4.042-8.16,11.199-14.35,19.857-17.171
			c8.157-2.422,16.945-1.449,24.375,2.697c8.582,4.955,16.128,11.518,22.227,19.328c5.485-8.411,10.889-16.082,15.845-22.857
			c-12.443-14.836-29.457-25.126-48.375-29.257c-16.341-2.011-32.64,4.045-43.703,16.237C4.095,125.462-4.185,153.203,2.13,179.582
			c4.711,18.345,14.418,35.024,28.041,48.183c6.285,6.26,13.204,11.849,20.645,16.677c2.825-9.143,6.053-18.148,9.573-26.861
			C35.657,198.837,17.902,167.568,33.61,137.882L33.61,137.882z"/>
		<path id="Shape_2_" fill="#382414" d="M246.226,177.186c16.028,21.477,16,46.418,15.973,68.425
			c0,19.42-0.045,36.188,10.332,46.895c8.686,9.015,24.841,14.024,49.426,15.341c27.816,2.415,55.705-3.753,79.908-17.673
			c-19.941-26.157-41.629-50.936-64.914-74.167C244.754,123.92,167.46,88.098,152.686,102.91
			c-6.089,6.089-1.253,23.223,1.637,31.359C190.079,132.947,224.286,148.921,246.226,177.186L246.226,177.186z"/>
		<path id="Shape_3_" fill="#382414" d="M252.827,300.057c-53.942-53.943-96.32-111.168-113.271-152.97
			c-2.664-6.408-4.775-13.034-6.309-19.803C88.247,187.143,0.677,332.414,110.628,442.32
			c109.952,109.906,255.26,22.3,315.091-22.674c-44.682-9.802-112.293-60.188-166.803-113.582L252.827,300.057z M226.853,416.574
			c-16.566,17.359-39.277,27.535-63.26,28.343c-10.32,0.096-20.481-2.545-29.449-7.652c-0.155-0.064-0.292-0.155-0.438-0.22
			c-3.636-2.091-6.996-4.628-10.003-7.552c-24.887-25.006-19.071-71.314,12.946-103.187c32.019-31.872,78.163-37.814,103.141-12.946
			C264.768,338.228,258.862,384.665,226.853,416.574L226.853,416.574z"/>
		<path id="Shape_4_" fill="#382414" d="M464.969,145.625c-7.208-4.08-16.131-3.599-22.857,1.234
			c-3.758,4.407-2.358,13.139,3.73,23.352c26.911,43.077,15.817,99.641-25.371,129.362l-0.101,0.072
			c-28.934,20.335-64.162,29.702-99.374,26.423c-5.321-0.283-10.213-0.795-14.903-1.407c17.169,15.054,35.199,29.096,53.998,42.057
			c31.272-2.946,60.222-17.781,80.878-41.444c2.039-2.643,5.355-3.964,8.652-3.448c3.298,0.517,6.052,2.788,7.186,5.928
			c1.134,3.139,0.467,6.646-1.74,9.15c-18.712,22.133-44.07,37.634-72.301,44.196c32.521,19.054,55.963,25.408,65.289,20.544
			c0.43-0.313,0.882-0.594,1.353-0.841c0.201-0.192,0.476-0.274,0.695-0.457s0.229-0.375,0.393-0.521
			c21.13-18.486,57.171-61.596,61.258-142.519C515.154,189.959,488.676,155.052,464.969,145.625z"/>
		<path id="Shape_5_" fill="#382414" d="M225.161,338.457c-1.865,22.431-19.68,40.222-42.112,42.058
			c-14.401,0.663-25.932,12.178-26.615,26.578c-0.615,6.264-2.379,12.359-5.202,17.984c18.597,5.485,43.557-2.24,62.684-21.422
			c24.356-24.274,30.373-57.938,14.017-76.087C226.474,331.041,225.54,334.711,225.161,338.457z"/>
		<path id="Shape_6_" fill="#382414" d="M180.444,362.402c14.401-0.663,25.932-12.178,26.614-26.578
			c0.627-6.228,2.377-12.29,5.166-17.893c-4.021-1.23-8.201-1.865-12.407-1.884c-19.14,0.917-37.173,9.241-50.285,23.214
			c-24.338,24.247-30.346,57.911-13.988,76.06c1.445-3.465,2.369-7.125,2.742-10.861c1.857-22.431,19.671-40.225,42.104-42.058
			H180.444z"/>
	</g>
</g>
<text transform="matrix(0.8693 0 0 1 2.441406e-04 582.5593)" fill="#382414" font-family="'ProximaNova-Extrabld'" font-size="79.7324">NOTHING CAFE</text>
</svg>
